<svg version="1.1"
	 xmlns="http://www.w3.org/2000/svg" xmlns:xlink="http://www.w3.org/1999/xlink" xmlns:a="http://ns.adobe.com/AdobeSVGViewerExtensions/3.0/"
	 x="0px" y="0px" width="844.5px" height="354.7px" viewBox="0 0 844.5 354.7" style="enable-background:new 0 0 844.5 354.7;"
	 xml:space="preserve">
<style type="text/css">
	.st0{fill:#0E0E37;}
	.st1{fill-rule:evenodd;clip-rule:evenodd;fill:#0E0E37;}
	.st2{fill-rule:evenodd;clip-rule:evenodd;fill:#FFFFFF;}
	.st3{fill:#FFFFFF;}
</style>
<defs>
</defs>
<g>
	<g>
		<path class="st0" d="M171.8,353.3v-83.5h43c8,0,14.1,0.7,18.3,2.1c4.2,1.4,7.6,3.9,10.2,7.6c2.6,3.7,3.9,8.2,3.9,13.5
			c0,4.6-1,8.6-3,12c-2,3.4-4.7,6.1-8.1,8.2c-2.2,1.3-5.2,2.4-9.1,3.3c3.1,1,5.3,2.1,6.7,3.1c0.9,0.7,2.3,2.1,4.1,4.4
			c1.8,2.2,3,4,3.6,5.2l12.5,24.2h-29.1L211,327.8c-1.7-3.3-3.3-5.4-4.7-6.4c-1.9-1.3-4-1.9-6.3-1.9h-2.3v33.9H171.8z M197.7,303.7
			h10.9c1.2,0,3.5-0.4,6.8-1.1c1.7-0.3,3.1-1.2,4.2-2.6c1.1-1.4,1.6-3,1.6-4.8c0-2.7-0.9-4.8-2.6-6.2c-1.7-1.4-4.9-2.2-9.6-2.2
			h-11.3V303.7z"/>
		<path class="st0" d="M262.1,269.8h69.1v17.8H288v13.3h40.1v17H288v16.5h44.5v18.9h-70.4V269.8z"/>
		<path class="st0" d="M347.4,269.8h25.9v83.5h-25.9V269.8z"/>
		<path class="st0" d="M391.5,269.8h33.9l13.1,50.8l13-50.8h33.9v83.5h-21.1v-63.7L448,353.3h-19.1l-16.2-63.7v63.7h-21.1V269.8z"/>
		<path class="st0" d="M557.4,319.2l22.6,6.8c-1.5,6.3-3.9,11.6-7.2,15.9c-3.3,4.3-7.3,7.5-12.2,9.6c-4.8,2.2-11,3.2-18.5,3.2
			c-9.1,0-16.5-1.3-22.2-4c-5.8-2.6-10.7-7.3-14.9-13.9c-4.2-6.6-6.3-15.1-6.3-25.5c0-13.8,3.7-24.4,11-31.8
			c7.3-7.4,17.7-11.1,31.2-11.1c10.5,0,18.8,2.1,24.8,6.4c6,4.3,10.5,10.8,13.4,19.6l-22.8,5.1c-0.8-2.5-1.6-4.4-2.5-5.6
			c-1.4-2-3.2-3.5-5.3-4.6c-2.1-1.1-4.4-1.6-7-1.6c-5.8,0-10.3,2.4-13.4,7.1c-2.4,3.5-3.5,9-3.5,16.4c0,9.3,1.4,15.6,4.2,19
			c2.8,3.4,6.8,5.1,11.8,5.1c4.9,0,8.7-1.4,11.2-4.2C554.5,328.5,556.3,324.4,557.4,319.2z"/>
		<path class="st0" d="M643.9,339.5h-29.3l-4.1,13.8h-26.3l31.4-83.5h28.1l31.4,83.5h-27L643.9,339.5z M638.6,321.5l-9.2-30l-9.1,30
			H638.6z"/>
	</g>
	<g>
		<path class="st1" d="M235,12.9v55.9h187.2c52.4,2.3,52.5,29.7,0,32.9H235.8l-0.4,55.1H369c42.4,2.1,74.9,2.8,74.6,35.9l-0.4,50.6
			h144.7v-48.2c1.6-51.9-26.1-57.2-82.2-62.6C656.3,122.9,651.9,12.9,457,13.6L235,12.9z"/>
	</g>
	<g>
		<path class="st1" d="M0,120.4c60.2,61.3,203.4,89.9,434,83.8v39C176.7,243.1,15.9,194.9,0,120.4z"/>
	</g>
	<g>
		<path class="st1" d="M595.4,181l-0.1,52.1c166.4-19.8,249.3-65,249.3-112.7c0-71.9-200.7-125-410.5-120.1
			c198.6,12.6,290.8,63.1,285.8,103C714.7,143.2,667.3,160.8,595.4,181z"/>
	</g>
	<g>
		<polygon class="st2" points="763.4,79.3 766.1,41.8 769.1,78.9 784.8,65.5 771.4,83.1 803.9,83.5 773.1,88.4 793.2,116.4 
			768.4,92.7 766.6,132.3 763.8,92.3 747.3,106.8 759.9,88.5 729.3,84.3 759.9,82.3 739.6,51.3 		"/>
		<path class="st3" d="M766.7,140l-3.4-46.8l-18.5,16.3l14.3-20.8l-34.3-4.7l34.3-2.1l-23.8-36.3L763,78.2l3-42.2l3.5,42l18.2-15.5
			l-15.4,20.2l36.9,0.4l-35.3,5.6l22.4,31.3l-27.6-26.3L766.7,140z M764.1,91.4l2.4,33.2l1.4-32.9l22.1,21.1l-17.7-24.7l26.4-4.2
			l-28.2-0.3l11.4-15l-13.2,11.3l-0.1-0.9l-2.6-31.4l-2.3,32.8l-19.8-23.3l16.8,25.7l-26.9,1.7l26.9,3.7l-11,16L764.1,91.4z"/>
	</g>
</g>
</svg>
